Astronauts search for solutions to save a dying Earth by searching on Mars, only to have the mission go terribly awry...
 
http://www.imdb.com/title/tt0199753/

Subs: Dutch, English.

Het is 2050. Kate Bowman leidt de belangrijkste missie van de 21ste eeuw: het voortbestaan van het menselijke ras. Ter voorbereiding van de kolonisatie gaat Bowman met haar crew naar Mars om de gebreken te herstellen van het Mars Terraforming Project. Wanneer er zich een explosie voordoet in de ruimte en het ruimteveer ernstig beschadigd wordt, geeft ze de bemanning opdracht het schip ter verlaten. Terwijl de crew zich voorbereid op een veiligere landing blijft Kate op het moederschip. Maar dan loopt het één na het ander mis...
 
http://www.moviemeter.nl/film/118

Subs: Engels, Nederlands.

General
Complete name                    : Red Planet-AC3-XviD-DVDRip 2000 TBS\Red Planet-AC3-XviD-DVDRip 2000.avi
Format                           : AVI
Format/Info                      : Audio Video Interleave
File size                        : 1.46 GiB
Duration                         : 1h 42mn
Overall bit rate                 : 2 046 Kbps
Writing application              : VirtualDubMod 1.5.4.1 (build 2178/release)
Writing library                  : VirtualDubMod build 2178/release

Video
ID                               : 0
Format                           : MPEG-4 Visual
Format profile                   : Simple@L3
Format settings, BVOP            : No
Format settings, QPel            : No
Format settings, GMC             : No warppoints
Format settings, Matrix          : Default (H.263)
Codec ID                         : XVID
Codec ID/Hint                    : XviD
Duration                         : 1h 42mn
Bit rate                         : 1 652 Kbps
Width                            : 720 pixels
Height                           : 304 pixels
Display aspect ratio             : 2.35:1
Frame rate                       : 25.000 fps
Color space                      : YUV
Chroma subsampling               : 4:2:0
Bit depth                        : 8 bits
Scan type                        : Progressive
Compression mode                 : Lossy
Bits/(Pixel*Frame)               : 0.302
Stream size                      : 1.18 GiB (81%)
Writing library                  : XviD 1.1.2 (UTC 2006-11-01)

Audio
ID                               : 1
Format                           : AC-3
Format/Info                      : Audio Coding 3
Mode extension                   : CM (complete main)
Codec ID                         : 2000
Duration                         : 1h 42mn
Bit rate mode                    : Constant
Bit rate                         : 384 Kbps
Channel(s)                       : 6 channels
Channel positions                : Front: L C R, Side: L R, LFE
Sampling rate                    : 48.0 KHz
Bit depth                        : 16 bits
Compression mode                 : Lossy
Stream size                      : 281 MiB (19%)
Alignment                        : Split accross interleaves
Interleave, duration             : 40 ms (1.00 video frame)
Interleave, preload duration     : 500 ms

Enjoy...

TBS.